<?xml version="1.0" encoding="UTF-8" standalone="no"?>
<!DOCTYPE svg PUBLIC "-//W3C//DTD SVG 1.1//EN"
 "http://www.w3.org/Graphics/SVG/1.1/DTD/svg11.dtd">
<!-- Generated by graphviz version 12.1.2 (20240928.0832)
 -->
<!-- Title: enums.user_audit_events Pages: 1 -->
<svg width="666pt" height="510pt"
 viewBox="0.00 0.00 665.76 509.60" xmlns="http://www.w3.org/2000/svg" xmlns:xlink="http://www.w3.org/1999/xlink">
<g id="graph0" class="graph" transform="scale(1 1) rotate(0) translate(4 505.6)">
<title>enums.user_audit_events</title>
<polygon fill="white" stroke="none" points="-4,4 -4,-505.6 661.76,-505.6 661.76,4 -4,4"/>
<!-- enums.user_audit_events -->
<g id="node1" class="node">
<title>enums.user_audit_events</title>
<polygon fill="#efefef" stroke="none" points="46.2,-107.8 46.2,-143.4 366.15,-143.4 366.15,-107.8 46.2,-107.8"/>
<polygon fill="none" stroke="black" points="46.2,-107.8 46.2,-143.4 366.15,-143.4 366.15,-107.8 46.2,-107.8"/>
<text text-anchor="start" x="53.2" y="-121.2" font-family="Arial Bold" font-size="18.00">enums.user_audit_events</text>
<text text-anchor="start" x="234.66" y="-121.2" font-family="Arial" font-size="14.00">    </text>
<text text-anchor="start" x="265.78" y="-121.2" font-family="Arial" font-size="14.00" fill="#666666">[BASE TABLE]</text>
<polygon fill="none" stroke="black" points="46.2,-77 46.2,-107.8 366.15,-107.8 366.15,-77 46.2,-77"/>
<text text-anchor="start" x="53.2" y="-89.2" font-family="Arial" font-size="14.00">id </text>
<text text-anchor="start" x="67.99" y="-89.2" font-family="Arial" font-size="14.00" fill="#666666">[smallint]</text>
<polygon fill="none" stroke="black" points="46.2,-46.2 46.2,-77 366.15,-77 366.15,-46.2 46.2,-46.2"/>
<text text-anchor="start" x="53.2" y="-58.4" font-family="Arial" font-size="14.00">name </text>
<text text-anchor="start" x="92.11" y="-58.4" font-family="Arial" font-size="14.00" fill="#666666">[text]</text>
<polygon fill="none" stroke="black" stroke-width="3" points="44.7,-44.7 44.7,-144.9 367.65,-144.9 367.65,-44.7 44.7,-44.7"/>
</g>
<!-- public.user_audit -->
<g id="node2" class="node">
<title>public.user_audit</title>
<polygon fill="#efefef" stroke="none" points="74.69,-422.8 74.69,-458.4 337.65,-458.4 337.65,-422.8 74.69,-422.8"/>
<polygon fill="none" stroke="black" points="74.69,-422.8 74.69,-458.4 337.65,-458.4 337.65,-422.8 74.69,-422.8"/>
<text text-anchor="start" x="81.69" y="-436.2" font-family="Arial Bold" font-size="18.00">public.user_audit</text>
<text text-anchor="start" x="206.16" y="-436.2" font-family="Arial" font-size="14.00">    </text>
<text text-anchor="start" x="237.28" y="-436.2" font-family="Arial" font-size="14.00" fill="#666666">[BASE TABLE]</text>
<polygon fill="none" stroke="black" points="74.69,-392 74.69,-422.8 337.65,-422.8 337.65,-392 74.69,-392"/>
<text text-anchor="start" x="81.69" y="-404.2" font-family="Arial" font-size="14.00">id </text>
<text text-anchor="start" x="96.48" y="-404.2" font-family="Arial" font-size="14.00" fill="#666666">[bigint]</text>
<polygon fill="none" stroke="black" points="74.69,-361.2 74.69,-392 337.65,-392 337.65,-361.2 74.69,-361.2"/>
<text text-anchor="start" x="81.69" y="-373.4" font-family="Arial" font-size="14.00">user_id </text>
<text text-anchor="start" x="131.5" y="-373.4" font-family="Arial" font-size="14.00" fill="#666666">[uuid]</text>
<polygon fill="none" stroke="black" points="74.69,-330.4 74.69,-361.2 337.65,-361.2 337.65,-330.4 74.69,-330.4"/>
<text text-anchor="start" x="81.69" y="-342.6" font-family="Arial" font-size="14.00">event </text>
<text text-anchor="start" x="119.83" y="-342.6" font-family="Arial" font-size="14.00" fill="#666666">[smallint]</text>
<polygon fill="none" stroke="black" points="74.69,-299.6 74.69,-330.4 337.65,-330.4 337.65,-299.6 74.69,-299.6"/>
<text text-anchor="start" x="81.69" y="-311.8" font-family="Arial" font-size="14.00">timestamp </text>
<text text-anchor="start" x="150.16" y="-311.8" font-family="Arial" font-size="14.00" fill="#666666">[timestamp with time zone]</text>
<polygon fill="none" stroke="black" points="74.69,-268.8 74.69,-299.6 337.65,-299.6 337.65,-268.8 74.69,-268.8"/>
<text text-anchor="start" x="81.69" y="-281" font-family="Arial" font-size="14.00">metadata </text>
<text text-anchor="start" x="143.96" y="-281" font-family="Arial" font-size="14.00" fill="#666666">[jsonb]</text>
</g>
<!-- public.user_audit&#45;&gt;enums.user_audit_events -->
<g id="edge1" class="edge">
<title>public.user_audit:event&#45;&gt;enums.user_audit_events:id</title>
<path fill="none" stroke="black" d="M348.62,-343.13C398.46,-316.04 420.38,-92.4 367.15,-92.4"/>
<polygon fill="black" stroke="black" points="348.64,-343.12 337.81,-341.37 343.48,-344.5 339.3,-345.63 339.3,-345.63 339.3,-345.63 343.48,-344.5 340.14,-350.06 348.64,-343.12"/>
<text text-anchor="start" x="345.65" y="-355.8" font-family="Arial" font-size="10.00">FOREIGN KEY (event) REFERENCES enums.user_audit_events(id)</text>
</g>
</g>
</svg>
