<?xml version="1.0" encoding="UTF-8" standalone="no"?>
<!DOCTYPE svg PUBLIC "-//W3C//DTD SVG 1.1//EN"
 "http://www.w3.org/Graphics/SVG/1.1/DTD/svg11.dtd">
<!-- Generated by graphviz version 12.1.2 (20240928.0832)
 -->
<!-- Title: meta.migrations_history Pages: 1 -->
<svg width="414pt" height="228pt"
 viewBox="0.00 0.00 414.36 228.40" xmlns="http://www.w3.org/2000/svg" xmlns:xlink="http://www.w3.org/1999/xlink">
<g id="graph0" class="graph" transform="scale(1 1) rotate(0) translate(4 224.4)">
<title>meta.migrations_history</title>
<polygon fill="white" stroke="none" points="-4,4 -4,-224.4 410.36,-224.4 410.36,4 -4,4"/>
<!-- meta.migrations_history -->
<g id="node1" class="node">
<title>meta.migrations_history</title>
<polygon fill="#efefef" stroke="none" points="46.2,-138.6 46.2,-174.2 360.16,-174.2 360.16,-138.6 46.2,-138.6"/>
<polygon fill="none" stroke="black" points="46.2,-138.6 46.2,-174.2 360.16,-174.2 360.16,-138.6 46.2,-138.6"/>
<text text-anchor="start" x="53.2" y="-152" font-family="Arial Bold" font-size="18.00">meta.migrations_history</text>
<text text-anchor="start" x="228.67" y="-152" font-family="Arial" font-size="14.00">    </text>
<text text-anchor="start" x="259.79" y="-152" font-family="Arial" font-size="14.00" fill="#666666">[BASE TABLE]</text>
<polygon fill="none" stroke="black" points="46.2,-107.8 46.2,-138.6 360.16,-138.6 360.16,-107.8 46.2,-107.8"/>
<text text-anchor="start" x="53.2" y="-120" font-family="Arial" font-size="14.00">schemaversionsid </text>
<text text-anchor="start" x="169.14" y="-120" font-family="Arial" font-size="14.00" fill="#666666">[integer]</text>
<polygon fill="none" stroke="black" points="46.2,-77 46.2,-107.8 360.16,-107.8 360.16,-77 46.2,-77"/>
<text text-anchor="start" x="53.2" y="-89.2" font-family="Arial" font-size="14.00">scriptname </text>
<text text-anchor="start" x="125.56" y="-89.2" font-family="Arial" font-size="14.00" fill="#666666">[varchar(255)]</text>
<polygon fill="none" stroke="black" points="46.2,-46.2 46.2,-77 360.16,-77 360.16,-46.2 46.2,-46.2"/>
<text text-anchor="start" x="53.2" y="-58.4" font-family="Arial" font-size="14.00">applied </text>
<text text-anchor="start" x="102.24" y="-58.4" font-family="Arial" font-size="14.00" fill="#666666">[timestamp without time zone]</text>
<polygon fill="none" stroke="black" stroke-width="3" points="44.7,-44.7 44.7,-175.7 361.66,-175.7 361.66,-44.7 44.7,-44.7"/>
</g>
</g>
</svg>
