<?xml version="1.0" encoding="UTF-8" standalone="no"?>
<!DOCTYPE svg PUBLIC "-//W3C//DTD SVG 1.1//EN"
 "http://www.w3.org/Graphics/SVG/1.1/DTD/svg11.dtd">
<!-- Generated by graphviz version 12.1.2 (20240928.0832)
 -->
<!-- Title: public.users Pages: 1 -->
<svg width="553pt" height="602pt"
 viewBox="0.00 0.00 552.54 602.00" xmlns="http://www.w3.org/2000/svg" xmlns:xlink="http://www.w3.org/1999/xlink">
<g id="graph0" class="graph" transform="scale(1 1) rotate(0) translate(4 598)">
<title>public.users</title>
<polygon fill="white" stroke="none" points="-4,4 -4,-598 548.54,-598 548.54,4 -4,4"/>
<!-- public.users -->
<g id="node1" class="node">
<title>public.users</title>
<polygon fill="#efefef" stroke="none" points="49.79,-200.2 49.79,-235.8 299.57,-235.8 299.57,-200.2 49.79,-200.2"/>
<polygon fill="none" stroke="black" points="49.79,-200.2 49.79,-235.8 299.57,-235.8 299.57,-200.2 49.79,-200.2"/>
<text text-anchor="start" x="69.19" y="-213.6" font-family="Arial Bold" font-size="18.00">public.users</text>
<text text-anchor="start" x="155.68" y="-213.6" font-family="Arial" font-size="14.00">    </text>
<text text-anchor="start" x="186.79" y="-213.6" font-family="Arial" font-size="14.00" fill="#666666">[BASE TABLE]</text>
<polygon fill="none" stroke="black" points="49.79,-169.4 49.79,-200.2 299.57,-200.2 299.57,-169.4 49.79,-169.4"/>
<text text-anchor="start" x="56.79" y="-181.6" font-family="Arial" font-size="14.00">id </text>
<text text-anchor="start" x="71.58" y="-181.6" font-family="Arial" font-size="14.00" fill="#666666">[uuid]</text>
<polygon fill="none" stroke="black" points="49.79,-138.6 49.79,-169.4 299.57,-169.4 299.57,-138.6 49.79,-138.6"/>
<text text-anchor="start" x="56.79" y="-150.8" font-family="Arial" font-size="14.00">created_at </text>
<text text-anchor="start" x="126.84" y="-150.8" font-family="Arial" font-size="14.00" fill="#666666">[timestamp with time zone]</text>
<polygon fill="none" stroke="black" points="49.79,-107.8 49.79,-138.6 299.57,-138.6 299.57,-107.8 49.79,-107.8"/>
<text text-anchor="start" x="56.79" y="-120" font-family="Arial" font-size="14.00">email </text>
<text text-anchor="start" x="94.14" y="-120" font-family="Arial" font-size="14.00" fill="#666666">[text]</text>
<polygon fill="none" stroke="black" points="49.79,-77 49.79,-107.8 299.57,-107.8 299.57,-77 49.79,-77"/>
<text text-anchor="start" x="56.79" y="-89.2" font-family="Arial" font-size="14.00">display_name </text>
<text text-anchor="start" x="147.07" y="-89.2" font-family="Arial" font-size="14.00" fill="#666666">[text]</text>
<polygon fill="none" stroke="black" points="49.79,-46.2 49.79,-77 299.57,-77 299.57,-46.2 49.79,-46.2"/>
<text text-anchor="start" x="56.79" y="-58.4" font-family="Arial" font-size="14.00">password_hash </text>
<text text-anchor="start" x="158.75" y="-58.4" font-family="Arial" font-size="14.00" fill="#666666">[text]</text>
<polygon fill="none" stroke="black" stroke-width="3" points="48.29,-44.7 48.29,-237.3 301.07,-237.3 301.07,-44.7 48.29,-44.7"/>
</g>
<!-- public.user_audit -->
<g id="node2" class="node">
<title>public.user_audit</title>
<polygon fill="#efefef" stroke="none" points="43.2,-515.2 43.2,-550.8 306.16,-550.8 306.16,-515.2 43.2,-515.2"/>
<polygon fill="none" stroke="black" points="43.2,-515.2 43.2,-550.8 306.16,-550.8 306.16,-515.2 43.2,-515.2"/>
<text text-anchor="start" x="50.2" y="-528.6" font-family="Arial Bold" font-size="18.00">public.user_audit</text>
<text text-anchor="start" x="174.67" y="-528.6" font-family="Arial" font-size="14.00">    </text>
<text text-anchor="start" x="205.79" y="-528.6" font-family="Arial" font-size="14.00" fill="#666666">[BASE TABLE]</text>
<polygon fill="none" stroke="black" points="43.2,-484.4 43.2,-515.2 306.16,-515.2 306.16,-484.4 43.2,-484.4"/>
<text text-anchor="start" x="50.2" y="-496.6" font-family="Arial" font-size="14.00">id </text>
<text text-anchor="start" x="64.99" y="-496.6" font-family="Arial" font-size="14.00" fill="#666666">[bigint]</text>
<polygon fill="none" stroke="black" points="43.2,-453.6 43.2,-484.4 306.16,-484.4 306.16,-453.6 43.2,-453.6"/>
<text text-anchor="start" x="50.2" y="-465.8" font-family="Arial" font-size="14.00">user_id </text>
<text text-anchor="start" x="100.01" y="-465.8" font-family="Arial" font-size="14.00" fill="#666666">[uuid]</text>
<polygon fill="none" stroke="black" points="43.2,-422.8 43.2,-453.6 306.16,-453.6 306.16,-422.8 43.2,-422.8"/>
<text text-anchor="start" x="50.2" y="-435" font-family="Arial" font-size="14.00">event </text>
<text text-anchor="start" x="88.34" y="-435" font-family="Arial" font-size="14.00" fill="#666666">[smallint]</text>
<polygon fill="none" stroke="black" points="43.2,-392 43.2,-422.8 306.16,-422.8 306.16,-392 43.2,-392"/>
<text text-anchor="start" x="50.2" y="-404.2" font-family="Arial" font-size="14.00">timestamp </text>
<text text-anchor="start" x="118.66" y="-404.2" font-family="Arial" font-size="14.00" fill="#666666">[timestamp with time zone]</text>
<polygon fill="none" stroke="black" points="43.2,-361.2 43.2,-392 306.16,-392 306.16,-361.2 43.2,-361.2"/>
<text text-anchor="start" x="50.2" y="-373.4" font-family="Arial" font-size="14.00">metadata </text>
<text text-anchor="start" x="112.46" y="-373.4" font-family="Arial" font-size="14.00" fill="#666666">[jsonb]</text>
</g>
<!-- public.user_audit&#45;&gt;public.users -->
<g id="edge1" class="edge">
<title>public.user_audit:user_id&#45;&gt;public.users:id</title>
<path fill="none" stroke="black" d="M317.23,-466.37C369.4,-437.72 360.16,-184.8 300.57,-184.8"/>
<polygon fill="black" stroke="black" points="317.16,-466.39 306.35,-464.56 312,-467.74 307.81,-468.83 307.81,-468.83 307.81,-468.83 312,-467.74 308.62,-473.27 317.16,-466.39"/>
<text text-anchor="start" x="314.16" y="-479" font-family="Arial" font-size="10.00">FOREIGN KEY (user_id) REFERENCES users(id)</text>
</g>
</g>
</svg>
