<?xml version="1.0" encoding="UTF-8" standalone="no"?>
<!DOCTYPE svg PUBLIC "-//W3C//DTD SVG 1.1//EN"
 "http://www.w3.org/Graphics/SVG/1.1/DTD/svg11.dtd">
<!-- Generated by graphviz version 12.1.2 (20240928.0832)
 -->
<!-- Title: public.user_audit Pages: 1 -->
<svg width="829pt" height="602pt"
 viewBox="0.00 0.00 829.45 602.00" xmlns="http://www.w3.org/2000/svg" xmlns:xlink="http://www.w3.org/1999/xlink">
<g id="graph0" class="graph" transform="scale(1 1) rotate(0) translate(4 598)">
<title>public.user_audit</title>
<polygon fill="white" stroke="none" points="-4,4 -4,-598 825.45,-598 825.45,4 -4,4"/>
<!-- public.user_audit -->
<g id="node1" class="node">
<title>public.user_audit</title>
<polygon fill="#efefef" stroke="none" points="238.38,-512.2 238.38,-547.8 501.34,-547.8 501.34,-512.2 238.38,-512.2"/>
<polygon fill="none" stroke="black" points="238.38,-512.2 238.38,-547.8 501.34,-547.8 501.34,-512.2 238.38,-512.2"/>
<text text-anchor="start" x="245.38" y="-525.6" font-family="Arial Bold" font-size="18.00">public.user_audit</text>
<text text-anchor="start" x="369.85" y="-525.6" font-family="Arial" font-size="14.00">    </text>
<text text-anchor="start" x="400.97" y="-525.6" font-family="Arial" font-size="14.00" fill="#666666">[BASE TABLE]</text>
<polygon fill="none" stroke="black" points="238.38,-481.4 238.38,-512.2 501.34,-512.2 501.34,-481.4 238.38,-481.4"/>
<text text-anchor="start" x="245.38" y="-493.6" font-family="Arial" font-size="14.00">id </text>
<text text-anchor="start" x="260.17" y="-493.6" font-family="Arial" font-size="14.00" fill="#666666">[bigint]</text>
<polygon fill="none" stroke="black" points="238.38,-450.6 238.38,-481.4 501.34,-481.4 501.34,-450.6 238.38,-450.6"/>
<text text-anchor="start" x="245.38" y="-462.8" font-family="Arial" font-size="14.00">user_id </text>
<text text-anchor="start" x="295.19" y="-462.8" font-family="Arial" font-size="14.00" fill="#666666">[uuid]</text>
<polygon fill="none" stroke="black" points="238.38,-419.8 238.38,-450.6 501.34,-450.6 501.34,-419.8 238.38,-419.8"/>
<text text-anchor="start" x="245.38" y="-432" font-family="Arial" font-size="14.00">event </text>
<text text-anchor="start" x="283.52" y="-432" font-family="Arial" font-size="14.00" fill="#666666">[smallint]</text>
<polygon fill="none" stroke="black" points="238.38,-389 238.38,-419.8 501.34,-419.8 501.34,-389 238.38,-389"/>
<text text-anchor="start" x="245.38" y="-401.2" font-family="Arial" font-size="14.00">timestamp </text>
<text text-anchor="start" x="313.84" y="-401.2" font-family="Arial" font-size="14.00" fill="#666666">[timestamp with time zone]</text>
<polygon fill="none" stroke="black" points="238.38,-358.2 238.38,-389 501.34,-389 501.34,-358.2 238.38,-358.2"/>
<text text-anchor="start" x="245.38" y="-370.4" font-family="Arial" font-size="14.00">metadata </text>
<text text-anchor="start" x="307.64" y="-370.4" font-family="Arial" font-size="14.00" fill="#666666">[jsonb]</text>
<polygon fill="none" stroke="black" stroke-width="3" points="236.88,-356.7 236.88,-549.3 502.84,-549.3 502.84,-356.7 236.88,-356.7"/>
</g>
<!-- public.users -->
<g id="node2" class="node">
<title>public.users</title>
<polygon fill="#efefef" stroke="none" points="50.97,-197.2 50.97,-232.8 300.74,-232.8 300.74,-197.2 50.97,-197.2"/>
<polygon fill="none" stroke="black" points="50.97,-197.2 50.97,-232.8 300.74,-232.8 300.74,-197.2 50.97,-197.2"/>
<text text-anchor="start" x="70.37" y="-210.6" font-family="Arial Bold" font-size="18.00">public.users</text>
<text text-anchor="start" x="156.86" y="-210.6" font-family="Arial" font-size="14.00">    </text>
<text text-anchor="start" x="187.97" y="-210.6" font-family="Arial" font-size="14.00" fill="#666666">[BASE TABLE]</text>
<polygon fill="none" stroke="black" points="50.97,-166.4 50.97,-197.2 300.74,-197.2 300.74,-166.4 50.97,-166.4"/>
<text text-anchor="start" x="57.97" y="-178.6" font-family="Arial" font-size="14.00">id </text>
<text text-anchor="start" x="72.76" y="-178.6" font-family="Arial" font-size="14.00" fill="#666666">[uuid]</text>
<polygon fill="none" stroke="black" points="50.97,-135.6 50.97,-166.4 300.74,-166.4 300.74,-135.6 50.97,-135.6"/>
<text text-anchor="start" x="57.97" y="-147.8" font-family="Arial" font-size="14.00">created_at </text>
<text text-anchor="start" x="128.02" y="-147.8" font-family="Arial" font-size="14.00" fill="#666666">[timestamp with time zone]</text>
<polygon fill="none" stroke="black" points="50.97,-104.8 50.97,-135.6 300.74,-135.6 300.74,-104.8 50.97,-104.8"/>
<text text-anchor="start" x="57.97" y="-117" font-family="Arial" font-size="14.00">email </text>
<text text-anchor="start" x="95.32" y="-117" font-family="Arial" font-size="14.00" fill="#666666">[text]</text>
<polygon fill="none" stroke="black" points="50.97,-74 50.97,-104.8 300.74,-104.8 300.74,-74 50.97,-74"/>
<text text-anchor="start" x="57.97" y="-86.2" font-family="Arial" font-size="14.00">display_name </text>
<text text-anchor="start" x="148.25" y="-86.2" font-family="Arial" font-size="14.00" fill="#666666">[text]</text>
<polygon fill="none" stroke="black" points="50.97,-43.2 50.97,-74 300.74,-74 300.74,-43.2 50.97,-43.2"/>
<text text-anchor="start" x="57.97" y="-55.4" font-family="Arial" font-size="14.00">password_hash </text>
<text text-anchor="start" x="159.92" y="-55.4" font-family="Arial" font-size="14.00" fill="#666666">[text]</text>
</g>
<!-- public.user_audit&#45;&gt;public.users -->
<g id="edge1" class="edge">
<title>public.user_audit:user_id&#45;&gt;public.users:id</title>
<path fill="none" stroke="black" d="M227.06,-465.17C172.76,-455.73 205.84,-367.93 238.38,-312 254.47,-284.34 284.59,-303.63 300.74,-276 321.87,-239.85 343.61,-181.8 301.74,-181.8"/>
<polygon fill="black" stroke="black" points="227.08,-465.17 236.68,-470.46 232.39,-465.6 236.71,-465.95 236.71,-465.95 236.71,-465.95 232.39,-465.6 237.41,-461.49 227.08,-465.17"/>
<text text-anchor="start" x="7" y="-476" font-family="Arial" font-size="10.00">FOREIGN KEY (user_id) REFERENCES users(id)</text>
</g>
<!-- enums.user_audit_events -->
<g id="node3" class="node">
<title>enums.user_audit_events</title>
<polygon fill="#efefef" stroke="none" points="404.88,-151 404.88,-186.6 724.83,-186.6 724.83,-151 404.88,-151"/>
<polygon fill="none" stroke="black" points="404.88,-151 404.88,-186.6 724.83,-186.6 724.83,-151 404.88,-151"/>
<text text-anchor="start" x="411.88" y="-164.4" font-family="Arial Bold" font-size="18.00">enums.user_audit_events</text>
<text text-anchor="start" x="593.34" y="-164.4" font-family="Arial" font-size="14.00">    </text>
<text text-anchor="start" x="624.46" y="-164.4" font-family="Arial" font-size="14.00" fill="#666666">[BASE TABLE]</text>
<polygon fill="none" stroke="black" points="404.88,-120.2 404.88,-151 724.83,-151 724.83,-120.2 404.88,-120.2"/>
<text text-anchor="start" x="411.88" y="-132.4" font-family="Arial" font-size="14.00">id </text>
<text text-anchor="start" x="426.67" y="-132.4" font-family="Arial" font-size="14.00" fill="#666666">[smallint]</text>
<polygon fill="none" stroke="black" points="404.88,-89.4 404.88,-120.2 724.83,-120.2 724.83,-89.4 404.88,-89.4"/>
<text text-anchor="start" x="411.88" y="-101.6" font-family="Arial" font-size="14.00">name </text>
<text text-anchor="start" x="450.79" y="-101.6" font-family="Arial" font-size="14.00" fill="#666666">[text]</text>
</g>
<!-- public.user_audit&#45;&gt;enums.user_audit_events -->
<g id="edge2" class="edge">
<title>public.user_audit:event&#45;&gt;enums.user_audit_events:id</title>
<path fill="none" stroke="black" d="M512.63,-434.14C552.56,-424.97 522.86,-358.13 501.34,-312 477.52,-260.96 428.76,-280.81 404.88,-229.8 387.13,-191.88 362.02,-135.6 403.88,-135.6"/>
<polygon fill="black" stroke="black" points="512.62,-434.14 502.21,-430.69 507.31,-434.69 503,-435.13 503,-435.13 503,-435.13 507.31,-434.69 503.13,-439.64 512.62,-434.14"/>
<text text-anchor="start" x="509.34" y="-445.2" font-family="Arial" font-size="10.00">FOREIGN KEY (event) REFERENCES enums.user_audit_events(id)</text>
</g>
</g>
</svg>
