<?xml version="1.0" encoding="UTF-8" standalone="no"?>
<!DOCTYPE svg PUBLIC "-//W3C//DTD SVG 1.1//EN"
 "http://www.w3.org/Graphics/SVG/1.1/DTD/svg11.dtd">
<!-- Generated by graphviz version 12.1.2 (20240928.0832)
 -->
<!-- Title: hackathon Pages: 1 -->
<svg width="1370pt" height="596pt"
 viewBox="0.00 0.00 1369.77 596.00" xmlns="http://www.w3.org/2000/svg" xmlns:xlink="http://www.w3.org/1999/xlink">
<g id="graph0" class="graph" transform="scale(1 1) rotate(0) translate(4 592)">
<title>hackathon</title>
<polygon fill="white" stroke="none" points="-4,4 -4,-592 1365.77,-592 1365.77,4 -4,4"/>
<!-- meta.migrations_history -->
<g id="node1" class="node">
<title>meta.migrations_history</title>
<polygon fill="#efefef" stroke="none" points="43.2,-478.4 43.2,-514 357.16,-514 357.16,-478.4 43.2,-478.4"/>
<polygon fill="none" stroke="black" points="43.2,-478.4 43.2,-514 357.16,-514 357.16,-478.4 43.2,-478.4"/>
<text text-anchor="start" x="50.2" y="-491.8" font-family="Arial Bold" font-size="18.00">meta.migrations_history</text>
<text text-anchor="start" x="225.67" y="-491.8" font-family="Arial" font-size="14.00">    </text>
<text text-anchor="start" x="256.79" y="-491.8" font-family="Arial" font-size="14.00" fill="#666666">[BASE TABLE]</text>
<polygon fill="none" stroke="black" points="43.2,-447.6 43.2,-478.4 357.16,-478.4 357.16,-447.6 43.2,-447.6"/>
<text text-anchor="start" x="50.2" y="-459.8" font-family="Arial" font-size="14.00">schemaversionsid </text>
<text text-anchor="start" x="166.14" y="-459.8" font-family="Arial" font-size="14.00" fill="#666666">[integer]</text>
<polygon fill="none" stroke="black" points="43.2,-416.8 43.2,-447.6 357.16,-447.6 357.16,-416.8 43.2,-416.8"/>
<text text-anchor="start" x="50.2" y="-429" font-family="Arial" font-size="14.00">scriptname </text>
<text text-anchor="start" x="122.56" y="-429" font-family="Arial" font-size="14.00" fill="#666666">[varchar(255)]</text>
<polygon fill="none" stroke="black" points="43.2,-386 43.2,-416.8 357.16,-416.8 357.16,-386 43.2,-386"/>
<text text-anchor="start" x="50.2" y="-398.2" font-family="Arial" font-size="14.00">applied </text>
<text text-anchor="start" x="99.24" y="-398.2" font-family="Arial" font-size="14.00" fill="#666666">[timestamp without time zone]</text>
</g>
<!-- public.test -->
<g id="node2" class="node">
<title>public.test</title>
<polygon fill="#efefef" stroke="none" points="461.69,-478.4 461.69,-514 674.67,-514 674.67,-478.4 461.69,-478.4"/>
<polygon fill="none" stroke="black" points="461.69,-478.4 461.69,-514 674.67,-514 674.67,-478.4 461.69,-478.4"/>
<text text-anchor="start" x="468.69" y="-491.8" font-family="Arial Bold" font-size="18.00">public.test</text>
<text text-anchor="start" x="543.18" y="-491.8" font-family="Arial" font-size="14.00">    </text>
<text text-anchor="start" x="574.3" y="-491.8" font-family="Arial" font-size="14.00" fill="#666666">[BASE TABLE]</text>
<polygon fill="none" stroke="black" points="461.69,-447.6 461.69,-478.4 674.67,-478.4 674.67,-447.6 461.69,-447.6"/>
<text text-anchor="start" x="468.69" y="-459.8" font-family="Arial" font-size="14.00">id </text>
<text text-anchor="start" x="483.48" y="-459.8" font-family="Arial" font-size="14.00" fill="#666666">[uuid]</text>
<polygon fill="none" stroke="black" points="461.69,-416.8 461.69,-447.6 674.67,-447.6 674.67,-416.8 461.69,-416.8"/>
<text text-anchor="start" x="468.69" y="-429" font-family="Arial" font-size="14.00">name </text>
<text text-anchor="start" x="507.6" y="-429" font-family="Arial" font-size="14.00" fill="#666666">[text]</text>
<polygon fill="none" stroke="black" points="461.69,-386 461.69,-416.8 674.67,-416.8 674.67,-386 461.69,-386"/>
<text text-anchor="start" x="468.69" y="-398.2" font-family="Arial" font-size="14.00">description </text>
<text text-anchor="start" x="540.29" y="-398.2" font-family="Arial" font-size="14.00" fill="#666666">[text]</text>
</g>
<!-- public.users -->
<g id="node3" class="node">
<title>public.users</title>
<polygon fill="#efefef" stroke="none" points="590.3,-197.2 590.3,-232.8 840.07,-232.8 840.07,-197.2 590.3,-197.2"/>
<polygon fill="none" stroke="black" points="590.3,-197.2 590.3,-232.8 840.07,-232.8 840.07,-197.2 590.3,-197.2"/>
<text text-anchor="start" x="609.69" y="-210.6" font-family="Arial Bold" font-size="18.00">public.users</text>
<text text-anchor="start" x="696.18" y="-210.6" font-family="Arial" font-size="14.00">    </text>
<text text-anchor="start" x="727.3" y="-210.6" font-family="Arial" font-size="14.00" fill="#666666">[BASE TABLE]</text>
<polygon fill="none" stroke="black" points="590.3,-166.4 590.3,-197.2 840.07,-197.2 840.07,-166.4 590.3,-166.4"/>
<text text-anchor="start" x="597.3" y="-178.6" font-family="Arial" font-size="14.00">id </text>
<text text-anchor="start" x="612.08" y="-178.6" font-family="Arial" font-size="14.00" fill="#666666">[uuid]</text>
<polygon fill="none" stroke="black" points="590.3,-135.6 590.3,-166.4 840.07,-166.4 840.07,-135.6 590.3,-135.6"/>
<text text-anchor="start" x="597.3" y="-147.8" font-family="Arial" font-size="14.00">created_at </text>
<text text-anchor="start" x="667.34" y="-147.8" font-family="Arial" font-size="14.00" fill="#666666">[timestamp with time zone]</text>
<polygon fill="none" stroke="black" points="590.3,-104.8 590.3,-135.6 840.07,-135.6 840.07,-104.8 590.3,-104.8"/>
<text text-anchor="start" x="597.3" y="-117" font-family="Arial" font-size="14.00">email </text>
<text text-anchor="start" x="634.64" y="-117" font-family="Arial" font-size="14.00" fill="#666666">[text]</text>
<polygon fill="none" stroke="black" points="590.3,-74 590.3,-104.8 840.07,-104.8 840.07,-74 590.3,-74"/>
<text text-anchor="start" x="597.3" y="-86.2" font-family="Arial" font-size="14.00">display_name </text>
<text text-anchor="start" x="687.57" y="-86.2" font-family="Arial" font-size="14.00" fill="#666666">[text]</text>
<polygon fill="none" stroke="black" points="590.3,-43.2 590.3,-74 840.07,-74 840.07,-43.2 590.3,-43.2"/>
<text text-anchor="start" x="597.3" y="-55.4" font-family="Arial" font-size="14.00">password_hash </text>
<text text-anchor="start" x="699.25" y="-55.4" font-family="Arial" font-size="14.00" fill="#666666">[text]</text>
</g>
<!-- enums.user_audit_events -->
<g id="node4" class="node">
<title>enums.user_audit_events</title>
<polygon fill="#efefef" stroke="none" points="944.21,-151 944.21,-186.6 1264.16,-186.6 1264.16,-151 944.21,-151"/>
<polygon fill="none" stroke="black" points="944.21,-151 944.21,-186.6 1264.16,-186.6 1264.16,-151 944.21,-151"/>
<text text-anchor="start" x="951.21" y="-164.4" font-family="Arial Bold" font-size="18.00">enums.user_audit_events</text>
<text text-anchor="start" x="1132.67" y="-164.4" font-family="Arial" font-size="14.00">    </text>
<text text-anchor="start" x="1163.78" y="-164.4" font-family="Arial" font-size="14.00" fill="#666666">[BASE TABLE]</text>
<polygon fill="none" stroke="black" points="944.21,-120.2 944.21,-151 1264.16,-151 1264.16,-120.2 944.21,-120.2"/>
<text text-anchor="start" x="951.21" y="-132.4" font-family="Arial" font-size="14.00">id </text>
<text text-anchor="start" x="965.99" y="-132.4" font-family="Arial" font-size="14.00" fill="#666666">[smallint]</text>
<polygon fill="none" stroke="black" points="944.21,-89.4 944.21,-120.2 1264.16,-120.2 1264.16,-89.4 944.21,-89.4"/>
<text text-anchor="start" x="951.21" y="-101.6" font-family="Arial" font-size="14.00">name </text>
<text text-anchor="start" x="990.12" y="-101.6" font-family="Arial" font-size="14.00" fill="#666666">[text]</text>
</g>
<!-- public.user_audit -->
<g id="node5" class="node">
<title>public.user_audit</title>
<polygon fill="#efefef" stroke="none" points="778.7,-509.2 778.7,-544.8 1041.66,-544.8 1041.66,-509.2 778.7,-509.2"/>
<polygon fill="none" stroke="black" points="778.7,-509.2 778.7,-544.8 1041.66,-544.8 1041.66,-509.2 778.7,-509.2"/>
<text text-anchor="start" x="785.7" y="-522.6" font-family="Arial Bold" font-size="18.00">public.user_audit</text>
<text text-anchor="start" x="910.17" y="-522.6" font-family="Arial" font-size="14.00">    </text>
<text text-anchor="start" x="941.29" y="-522.6" font-family="Arial" font-size="14.00" fill="#666666">[BASE TABLE]</text>
<polygon fill="none" stroke="black" points="778.7,-478.4 778.7,-509.2 1041.66,-509.2 1041.66,-478.4 778.7,-478.4"/>
<text text-anchor="start" x="785.7" y="-490.6" font-family="Arial" font-size="14.00">id </text>
<text text-anchor="start" x="800.49" y="-490.6" font-family="Arial" font-size="14.00" fill="#666666">[bigint]</text>
<polygon fill="none" stroke="black" points="778.7,-447.6 778.7,-478.4 1041.66,-478.4 1041.66,-447.6 778.7,-447.6"/>
<text text-anchor="start" x="785.7" y="-459.8" font-family="Arial" font-size="14.00">user_id </text>
<text text-anchor="start" x="835.51" y="-459.8" font-family="Arial" font-size="14.00" fill="#666666">[uuid]</text>
<polygon fill="none" stroke="black" points="778.7,-416.8 778.7,-447.6 1041.66,-447.6 1041.66,-416.8 778.7,-416.8"/>
<text text-anchor="start" x="785.7" y="-429" font-family="Arial" font-size="14.00">event </text>
<text text-anchor="start" x="823.84" y="-429" font-family="Arial" font-size="14.00" fill="#666666">[smallint]</text>
<polygon fill="none" stroke="black" points="778.7,-386 778.7,-416.8 1041.66,-416.8 1041.66,-386 778.7,-386"/>
<text text-anchor="start" x="785.7" y="-398.2" font-family="Arial" font-size="14.00">timestamp </text>
<text text-anchor="start" x="854.16" y="-398.2" font-family="Arial" font-size="14.00" fill="#666666">[timestamp with time zone]</text>
<polygon fill="none" stroke="black" points="778.7,-355.2 778.7,-386 1041.66,-386 1041.66,-355.2 778.7,-355.2"/>
<text text-anchor="start" x="785.7" y="-367.4" font-family="Arial" font-size="14.00">metadata </text>
<text text-anchor="start" x="847.96" y="-367.4" font-family="Arial" font-size="14.00" fill="#666666">[jsonb]</text>
</g>
<!-- public.user_audit&#45;&gt;public.users -->
<g id="edge1" class="edge">
<title>public.user_audit:user_id&#45;&gt;public.users:id</title>
<path fill="none" stroke="black" d="M767.59,-462.19C714.37,-452.95 746.99,-366.95 778.7,-312 794.51,-284.61 824.21,-303.36 840.07,-276 861.07,-239.78 882.94,-181.8 841.07,-181.8"/>
<polygon fill="black" stroke="black" points="767.4,-462.17 777.01,-467.46 772.72,-462.6 777.03,-462.95 777.03,-462.95 777.03,-462.95 772.72,-462.6 777.73,-458.49 767.4,-462.17"/>
<text text-anchor="start" x="725.36" y="-447" font-family="Arial" font-size="10.00">FOREIGN KEY (user_id) REFERENCES users(id)</text>
</g>
<!-- public.user_audit&#45;&gt;enums.user_audit_events -->
<g id="edge2" class="edge">
<title>public.user_audit:event&#45;&gt;enums.user_audit_events:id</title>
<path fill="none" stroke="black" d="M1052.7,-431.17C1091.67,-422.21 1062.78,-356.95 1041.66,-312 1017.57,-260.72 968.36,-281.06 944.21,-229.8 926.36,-191.93 901.34,-135.6 943.21,-135.6"/>
<polygon fill="black" stroke="black" points="1052.94,-431.14 1042.53,-427.69 1047.64,-431.69 1043.33,-432.13 1043.33,-432.13 1043.33,-432.13 1047.64,-431.69 1043.45,-436.64 1052.94,-431.14"/>
<text text-anchor="start" x="1049.66" y="-442.2" font-family="Arial" font-size="10.00">FOREIGN KEY (event) REFERENCES enums.user_audit_events(id)</text>
</g>
</g>
</svg>
