<?xml version="1.0" encoding="UTF-8" standalone="no"?>
<!DOCTYPE svg PUBLIC "-//W3C//DTD SVG 1.1//EN"
 "http://www.w3.org/Graphics/SVG/1.1/DTD/svg11.dtd">
<!-- Generated by graphviz version 12.1.2 (20240928.0832)
 -->
<!-- Title: hackathon Pages: 1 -->
<svg width="726pt" height="222pt"
 viewBox="0.00 0.00 725.87 222.40" xmlns="http://www.w3.org/2000/svg" xmlns:xlink="http://www.w3.org/1999/xlink">
<g id="graph0" class="graph" transform="scale(1 1) rotate(0) translate(4 218.4)">
<title>hackathon</title>
<polygon fill="white" stroke="none" points="-4,4 -4,-218.4 721.87,-218.4 721.87,4 -4,4"/>
<!-- meta.migrations_history -->
<g id="node1" class="node">
<title>meta.migrations_history</title>
<polygon fill="#efefef" stroke="none" points="43.2,-135.6 43.2,-171.2 357.16,-171.2 357.16,-135.6 43.2,-135.6"/>
<polygon fill="none" stroke="black" points="43.2,-135.6 43.2,-171.2 357.16,-171.2 357.16,-135.6 43.2,-135.6"/>
<text text-anchor="start" x="50.2" y="-149" font-family="Arial Bold" font-size="18.00">meta.migrations_history</text>
<text text-anchor="start" x="225.67" y="-149" font-family="Arial" font-size="14.00">    </text>
<text text-anchor="start" x="256.79" y="-149" font-family="Arial" font-size="14.00" fill="#666666">[BASE TABLE]</text>
<polygon fill="none" stroke="black" points="43.2,-104.8 43.2,-135.6 357.16,-135.6 357.16,-104.8 43.2,-104.8"/>
<text text-anchor="start" x="50.2" y="-117" font-family="Arial" font-size="14.00">schemaversionsid </text>
<text text-anchor="start" x="166.14" y="-117" font-family="Arial" font-size="14.00" fill="#666666">[integer]</text>
<polygon fill="none" stroke="black" points="43.2,-74 43.2,-104.8 357.16,-104.8 357.16,-74 43.2,-74"/>
<text text-anchor="start" x="50.2" y="-86.2" font-family="Arial" font-size="14.00">scriptname </text>
<text text-anchor="start" x="122.56" y="-86.2" font-family="Arial" font-size="14.00" fill="#666666">[varchar(255)]</text>
<polygon fill="none" stroke="black" points="43.2,-43.2 43.2,-74 357.16,-74 357.16,-43.2 43.2,-43.2"/>
<text text-anchor="start" x="50.2" y="-55.4" font-family="Arial" font-size="14.00">applied </text>
<text text-anchor="start" x="99.24" y="-55.4" font-family="Arial" font-size="14.00" fill="#666666">[timestamp without time zone]</text>
</g>
<!-- public.test -->
<g id="node2" class="node">
<title>public.test</title>
<polygon fill="#efefef" stroke="none" points="461.69,-120.2 461.69,-155.8 674.67,-155.8 674.67,-120.2 461.69,-120.2"/>
<polygon fill="none" stroke="black" points="461.69,-120.2 461.69,-155.8 674.67,-155.8 674.67,-120.2 461.69,-120.2"/>
<text text-anchor="start" x="468.69" y="-133.6" font-family="Arial Bold" font-size="18.00">public.test</text>
<text text-anchor="start" x="543.18" y="-133.6" font-family="Arial" font-size="14.00">    </text>
<text text-anchor="start" x="574.3" y="-133.6" font-family="Arial" font-size="14.00" fill="#666666">[BASE TABLE]</text>
<polygon fill="none" stroke="black" points="461.69,-89.4 461.69,-120.2 674.67,-120.2 674.67,-89.4 461.69,-89.4"/>
<text text-anchor="start" x="468.69" y="-101.6" font-family="Arial" font-size="14.00">id </text>
<text text-anchor="start" x="483.48" y="-101.6" font-family="Arial" font-size="14.00" fill="#666666">[uuid]</text>
<polygon fill="none" stroke="black" points="461.69,-58.6 461.69,-89.4 674.67,-89.4 674.67,-58.6 461.69,-58.6"/>
<text text-anchor="start" x="468.69" y="-70.8" font-family="Arial" font-size="14.00">name </text>
<text text-anchor="start" x="507.6" y="-70.8" font-family="Arial" font-size="14.00" fill="#666666">[text]</text>
</g>
</g>
</svg>
